<?xml version="1.0" encoding="utf-8"?>
<!-- Generator: Adobe Illustrator 27.2.0, SVG Export Plug-In . SVG Version: 6.00 Build 0)  -->
<svg version="1.1" id="Ebene_1" xmlns="http://www.w3.org/2000/svg" xmlns:xlink="http://www.w3.org/1999/xlink" x="0px" y="0px"
	 viewBox="0 0 12.4 14.9" style="enable-background:new 0 0 12.4 14.9;" xml:space="preserve">
<style type="text/css">
	.st0{stroke:#000000;stroke-width:0.5;stroke-miterlimit:10;}
</style>
<g>
	<path class="st0" d="M0.9,0.9c0,0,3.6,0.7,5.2,0.7c1.7,0,3.3-0.3,4.9-0.7v2.9h0.6v7.3h-0.1c-0.6,0-1.1,0-1.7,0
		c-0.1,0-0.1,0-0.1,0.1c-0.5,0.7-1,1.3-1.6,1.9c-0.3,0.3-0.7,0.6-1.1,0.8c-0.7,0.3-1.4,0.4-2.1,0C4.4,13.7,4,13.4,3.7,13
		C3,12.3,2.5,11.6,2,10.8C1.6,10.2,1.3,9.6,1,9V8.9C0.9,6.3,0.9,0.9,0.9,0.9z M1.4,1.4C1.4,1.4,1.4,1.5,1.4,1.4c0,1,0,2,0,2.9
		c0,1.5,0,3,0,4.4v0.1c0.3,0.5,0.6,1.1,1,1.6c0.4,0.7,0.9,1.4,1.5,2c0.4,0.4,0.7,0.7,1.2,0.9c0.5,0.3,1.1,0.3,1.6,0
		c0.4-0.2,0.7-0.4,1-0.7c0.6-0.5,1-1.1,1.5-1.7l0,0H2.7V3.7h7.9V1.4C7.5,2.2,4.4,2.2,1.4,1.4L1.4,1.4z M3.1,10.6h8.1V4.1H3.1
		C3.1,4.2,3.1,10.6,3.1,10.6z"/>
	<path d="M4.5,9.5V8.2h5.3v1.3H4.5z M4.9,9.1h4.4V8.8H4.9V9.1z"/>
</g>
<ellipse cx="8.8" cy="6" rx="0.7" ry="1"/>
<ellipse cx="5.3" cy="6" rx="0.7" ry="1"/>
</svg>
